<svg height="68" viewBox="0 0 135 68" width="135" xmlns="http://www.w3.org/2000/svg"><path d="m726.671875 488.1875c13.324219 0 16.699219-13.148438 16.699219-25.488281l-.004272-.743525c-.140417-12.159114-3.784869-24.955694-17.187134-24.955694-14.595469 0-16.654181 14.157605-16.764567 24.664995l-.004965.963911c0 10.511719 1.863282 25.558594 17.261719 25.558594zm-.210937-8.402344c-8.050782 0-8.296876-9.210937-8.296876-17.15625l.004036-1.417563c.050949-7.598616.699089-15.633218 8.01159-15.633218 7.769531 0 7.980468 9 7.980468 16.980469l-.004804 1.693163c-.053132 7.409436-.67572 15.533399-7.694414 15.533399zm53.367187-12.09375v-29.882812h-7.488281l-24.257813 32.835937v5.167969h22.957031v11.671875h8.789063v-11.671875h7.910156v-8.121094zm-85.4375-29.441406v41.390625h10.640625v9.234375h-10.640625v15.609375h-9.890625v-15.609375h-31.5v-6l32.8125-44.625zm-9.890625 15.234375-18.609375 26.15625h18.609375zm86.539062-2.035156v16.242187h-11.53125z" fill="#fff" transform="translate(-653 -437)"/></svg>