<svg height="62" viewBox="0 0 50 62" width="50" xmlns="http://www.w3.org/2000/svg"><path d="m8.3984375 6.6171875v47.265625h24.140625v7.9296875h-32.5390625v-55.1953125zm26.0703125-6.6171875c5.4375 0 10.40625 2.375 13.4375 7.75l-6.59375 4.03125c-1.53125-3-4.15625-4.71875-7.125-4.71875-3.125 0-5.5625 1.90625-5.5625 4.71875 0 8.3125 21.375 5.5 21.375 20.15625 0 8.34375-6.90625 13.375-15.34375 13.375-7.8125 0-15.5-4.28125-16.90625-12.96875l7.875-2c.5625 5.5 4.46875 7.9375 9.15625 7.9375 4.71875 0 7.28125-2.5 7.28125-5.625 0-9.15625-21.375-6.09375-21.375-20.46875 0-7.8125 6.34375-12.1875 13.78125-12.1875z" fill="#001732"/></svg>