<?xml version="1.0" encoding="UTF-8"?>
<svg width="273px" height="120px" viewBox="0 0 273 120" version="1.1" xmlns="http://www.w3.org/2000/svg" xmlns:xlink="http://www.w3.org/1999/xlink">
    <!-- Generator: Sketch 45.1 (43504) - http://www.bohemiancoding.com/sketch -->
    <title>luke copy 5</title>
    <desc>Created with Sketch.</desc>
    <defs></defs>
    <g id="Page-1" stroke="none" stroke-width="1" fill="none" fill-rule="evenodd">
        <g id="Group-10" transform="translate(-518.000000, -380.000000)" fill="#000000">
            <path d="M540.794768,497.139073 L518,497.139073 L518,380 L540.794768,380 L540.794768,497.139073 Z M572.317288,410.516556 L572.317288,462.728477 C572.317288,467.655654 572.903814,471.364226 574.076884,473.854305 C576.156417,478.251678 580.23544,480.450331 586.314075,480.450331 C594.098994,480.450331 599.43105,477.324535 602.310403,471.072848 C603.803402,467.682102 604.549889,463.205326 604.549889,457.642384 L604.549889,410.516556 L627.664584,410.516556 L627.664584,497.139073 L605.509669,497.139073 L605.509669,484.900662 C605.296384,485.165564 604.763178,485.960258 603.910036,487.284768 C603.056895,488.609278 602.043804,489.774829 600.870734,490.781457 C597.298203,493.960281 593.845696,496.132445 590.513111,497.298013 C587.180526,498.463582 583.274795,499.046358 578.795801,499.046358 C565.892032,499.046358 557.20078,494.437132 552.721786,485.218543 C550.215682,480.132425 548.962649,472.635811 548.962649,462.728477 L548.962649,410.516556 L572.317288,410.516556 Z M636.878079,380.397351 L659.272938,380.397351 L659.272938,443.496689 L687.666421,410.913907 L715.89994,410.913907 L685.426935,444.05298 L717.099664,497.139073 L689.58598,497.139073 L668.710772,460.10596 L659.272938,469.880795 L659.272938,497.139073 L636.878079,497.139073 L636.878079,380.397351 Z M737.3477,431.81457 C734.441685,435.099354 732.615456,439.549641 731.868957,445.165563 L767.300824,445.165563 C766.927575,439.178778 765.101345,434.635777 761.822082,431.536424 C758.542818,428.437071 754.477125,426.887417 749.624882,426.887417 C744.346067,426.887417 740.253714,428.529785 737.3477,431.81457 Z M769.220384,412.264901 C775.032412,414.966901 779.831262,419.231759 783.617079,425.059603 C787.029646,430.198701 789.242449,436.158906 790.255555,442.940397 C790.84209,446.913927 791.082033,452.635724 790.97539,460.10596 L731.309086,460.10596 C731.629014,468.794745 734.375023,474.8874 739.547195,478.384106 C742.693155,480.556302 746.478915,481.642384 750.904588,481.642384 C755.596868,481.642384 759.409288,480.317894 762.341962,477.668874 C763.941603,476.238403 765.354598,474.251668 766.580989,471.708609 L789.855647,471.708609 C789.269112,476.847708 786.576424,482.066199 781.777501,487.364238 C774.312511,495.788122 763.861681,500 750.424698,500 C739.333855,500 729.549532,496.450367 721.071436,489.350993 C712.593339,482.25162 708.354355,470.702067 708.354355,454.701987 C708.354355,439.708534 712.180105,428.211961 719.83172,420.211921 C727.483336,412.211881 737.41429,408.211921 749.624882,408.211921 C756.876587,408.211921 763.408355,409.5629 769.220384,412.264901 Z" id="luke-copy-5"></path>
        </g>
    </g>
</svg>