<?xml version="1.0" standalone="no"?>
<!DOCTYPE svg PUBLIC "-//W3C//DTD SVG 20010904//EN"
 "http://www.w3.org/TR/2001/REC-SVG-20010904/DTD/svg10.dtd">
<svg version="1.0" xmlns="http://www.w3.org/2000/svg"
 width="700.000000pt" height="700.000000pt" viewBox="0 0 700.000000 700.000000"
 preserveAspectRatio="xMidYMid meet">
<metadata>
Created by potrace 1.11, written by Peter Selinger 2001-2013
</metadata>
<g transform="translate(0.000000,700.000000) scale(0.100000,-0.100000)"
fill="#000000" stroke="none">
<path d="M665 6985 c-89 -20 -153 -43 -224 -82 -198 -107 -334 -271 -408 -493
l-28 -85 0 -2825 0 -2825 32 -95 c89 -261 281 -454 543 -543 l95 -32 2825 0
2825 0 95 32 c261 88 446 273 539 536 l36 102 0 2825 0 2825 -28 85 c-92 275
-282 465 -557 557 l-85 28 -2800 2 c-2300 1 -2811 -1 -2860 -12z m3700 -1266
c216 -35 426 -146 575 -306 60 -64 150 -189 150 -208 0 -6 -100 -72 -222 -147
l-222 -136 -32 48 c-52 79 -91 124 -143 164 -164 124 -376 150 -542 66 -172
-88 -231 -305 -123 -457 73 -103 194 -173 554 -315 391 -155 527 -231 665
-372 44 -45 97 -111 118 -146 124 -214 135 -532 27 -776 -120 -269 -381 -463
-720 -535 -138 -29 -389 -32 -525 -5 -389 75 -682 279 -832 581 -53 105 -103
279 -87 295 9 8 526 142 530 137 2 -1 10 -36 18 -77 46 -219 178 -366 396
-440 93 -32 302 -40 402 -15 106 26 176 62 239 125 159 158 137 405 -50 556
-69 55 -259 149 -486 239 -544 216 -741 378 -826 681 -31 110 -31 312 0 429
46 173 144 322 282 427 156 118 313 174 569 202 49 5 213 -3 285 -15z m-2033
-2101 l3 -1653 843 -3 842 -2 0 -270 0 -270 -1135 0 -1135 0 0 1925 0 1925
290 0 290 0 2 -1652z"/>
</g>
</svg>
