<svg height="700pt" preserveAspectRatio="xMidYMid meet" viewBox="0 0 700 700" width="700pt" xmlns="http://www.w3.org/2000/svg"><path d="m665 6985c-89-20-153-43-224-82-198-107-334-271-408-493l-28-85v-2825-2825l32-95c89-261 281-454 543-543l95-32h2825 2825l95 32c261 88 446 273 539 536l36 102v2825 2825l-28 85c-92 275-282 465-557 557l-85 28-2800 2c-2300 1-2811-1-2860-12zm3700-1266c216-35 426-146 575-306 60-64 150-189 150-208 0-6-100-72-222-147l-222-136-32 48c-52 79-91 124-143 164-164 124-376 150-542 66-172-88-231-305-123-457 73-103 194-173 554-315 391-155 527-231 665-372 44-45 97-111 118-146 124-214 135-532 27-776-120-269-381-463-720-535-138-29-389-32-525-5-389 75-682 279-832 581-53 105-103 279-87 295 9 8 526 142 530 137 2-1 10-36 18-77 46-219 178-366 396-440 93-32 302-40 402-15 106 26 176 62 239 125 159 158 137 405-50 556-69 55-259 149-486 239-544 216-741 378-826 681-31 110-31 312 0 429 46 173 144 322 282 427 156 118 313 174 569 202 49 5 213-3 285-15zm-2033-2101 3-1653 843-3 842-2v-270-270h-1135-1135v1925 1925h290 290z" transform="matrix(.1 0 0 -.1 0 700)"/></svg>